<svg xmlns="http://www.w3.org/2000/svg" xmlns:xlink="http://www.w3.org/1999/xlink" id="Capa_1" x="0px" y="0px" viewBox="0 0 512 512" style="enable-background:new 0 0 512 512;" xml:space="preserve">
<style type="text/css">
	.st0{fill:#FFEFEF;}
	.st1{fill-rule:evenodd;clip-rule:evenodd;fill:#6D6D6D;}
</style>
<path class="st0" d="M159.9,105.4c-18.9,3.1-38.5,7.9-52.3,21.2c-11.4,10.9-17.3,26.2-22.8,41c-9.7,26-19.1,52.1-28.2,78.3  c-5.7,16.6-11.4,34.3-7.1,51.3c3.2,12.7,11.7,23.3,20.1,33.3c31.8,37.8,69,75,116.9,87c52.6,13.3,108-6.4,155.6-32.4  c40.4-22.1,79.4-50.2,102.6-90s27.6-93.2,0.8-130.7C383.7,77.6,250.6,90.7,159.9,105.4z"></path>
<path class="st1" d="M313.2,104.6c-21.4-21.4-49.9-33.3-80.2-33.3c-62.5,0-113.4,50.9-113.4,113.4c0,20,5.2,39.5,15.1,56.7  l-16.1,58.8l60.1-15.8c16.6,9,35.2,13.8,54.2,13.8h0c62.5,0,113.4-50.9,113.4-113.4C346.4,154.5,334.6,126,313.2,104.6z M233,279.1  L233,279.1c-17,0-33.5-4.6-48-13.1l-3.4-2l-35.7,9.4l9.5-34.8l-2.2-3.6c-9.4-15-14.4-32.4-14.4-50.2c0-52,42.3-94.3,94.3-94.3  c25.2,0,48.9,9.8,66.6,27.6c17.8,17.8,27.6,41.5,27.6,66.7C327.2,236.8,284.9,279.1,233,279.1z M284.7,208.5  c-2.8-1.4-16.8-8.3-19.4-9.2c-2.6-0.9-4.5-1.4-6.4,1.4c-1.9,2.8-7.3,9.2-9,11.1c-1.7,1.9-3.3,2.1-6.1,0.7c-2.8-1.4-12-4.4-22.8-14.1  c-8.4-7.5-14.1-16.8-15.8-19.6c-1.7-2.8,0-4.2,1.2-5.8c3.1-3.8,6.1-7.8,7.1-9.7c0.9-1.9,0.5-3.5-0.2-5c-0.7-1.4-6.4-15.4-8.7-21  c-2.3-5.5-4.6-4.8-6.4-4.9c-1.7-0.1-3.5-0.1-5.4-0.1c-1.9,0-5,0.7-7.6,3.5c-2.6,2.8-9.9,9.7-9.9,23.6s10.2,27.4,11.6,29.3  c1.4,1.9,20,30.5,48.4,42.8c6.8,2.9,12,4.7,16.2,6c6.8,2.2,13,1.9,17.9,1.1c5.4-0.8,16.8-6.9,19.1-13.5c2.4-6.6,2.4-12.3,1.7-13.5  C289.4,210.6,287.5,209.9,284.7,208.5z"></path>
</svg>